<svg height="155" viewBox="0 0 60 155" width="60" xmlns="http://www.w3.org/2000/svg"><g fill="#333"><path d="m5 17.5 12.5-12.5 2.5 2.5-10 10 10 10-2.5 2.5z"/><path d="m42.5 20-12.5-12.5 2.5-2.5 10 10 10-10 2.5 2.5z"/><path d="m55 42.5-12.5 12.5-2.5-2.5 10-10-10-10 2.5-2.5z"/><path d="m17.5 40 12.5 12.5-2.5 2.5-10-10-10 10-2.5-2.5z"/></g><path d="m5 72.5 12.5-12.5 2.5 2.5-10 10 10 10-2.5 2.5z" fill="#fff"/><path d="m42.5 75-12.5-12.5 2.5-2.5 10 10 10-10 2.5 2.5z" fill="#fff"/><path d="m55 97.5-12.5 12.5-2.5-2.5 10-10-10-10 2.5-2.5z" fill="#fff"/><path d="m17.5 95 12.5 12.5-2.5 2.5-10-10-10 10-2.5-2.5z" fill="#fff"/><circle cx="20" cy="130" fill="#0958ab" r="15"/><path d="m19 120.3h2.5v2.5h-2.5z" fill="#fff"/><path d="m19 125.9h2.5v13h-2.5z" fill="#fff"/><path d="m41.5 118.5h11v7h-11z" fill="none"/><path d="m52.5 126h-11.5v-8h11.5zm-10.5-1h9.6v-6h-9.6z" fill="#0c1e63"/><path d="m43.5 115.5h11v7h-11z" fill="none"/><path d="m55 123h-11.5v-8h11.5zm-10.5-1h9.5v-6h-9.6v6z" fill="#0c1e63"/><path d="m41.5 134h11v7h-11z" fill="none"/><path d="m52.5 141.5h-11.5v-8h11.5zm-10.5-1h9.6v-6h-9.6z" fill="#fff"/><path d="m43.5 131h11v7h-11z" fill="none"/><path d="m55 138.5h-11.5v-8h11.5zm-10.5-1h9.5v-6h-9.6v6z" fill="#fff"/></svg>